<?xml version="1.0" encoding="utf-8"?>
<!-- Generator: Adobe Illustrator 21.1.0, SVG Export Plug-In . SVG Version: 6.00 Build 0)  -->
<svg version="1.1" id="Layer_1" xmlns="http://www.w3.org/2000/svg" xmlns:xlink="http://www.w3.org/1999/xlink" x="0px" y="0px"
	 viewBox="0 0 80.2 67.6" style="enable-background:new 0 0 80.2 67.6;" xml:space="preserve">
<style type="text/css">
	.st0{display:none;}
	.st1{display:inline;}
	.st2{display:inline;clip-path:url(#SVGID_2_);fill:#010101;}
	
		.st3{display:inline;clip-path:url(#SVGID_4_);fill:none;stroke:#010101;stroke-width:4;stroke-linecap:round;stroke-linejoin:round;stroke-miterlimit:10;}
	
		.st4{display:inline;clip-path:url(#SVGID_4_);fill:none;stroke:#010101;stroke-width:4;stroke-linecap:round;stroke-miterlimit:10;}
	
		.st5{display:inline;clip-path:url(#SVGID_6_);fill:none;stroke:#010101;stroke-width:4;stroke-linecap:round;stroke-linejoin:round;stroke-miterlimit:10;}
	
		.st6{display:inline;clip-path:url(#SVGID_6_);fill:none;stroke:#010101;stroke-width:4;stroke-linecap:round;stroke-miterlimit:10;}
	
		.st7{display:inline;clip-path:url(#SVGID_8_);fill:none;stroke:#010101;stroke-width:4;stroke-linecap:round;stroke-linejoin:round;stroke-miterlimit:10;}
	
		.st8{display:inline;clip-path:url(#SVGID_10_);fill:none;stroke:#010101;stroke-width:4;stroke-linecap:round;stroke-linejoin:round;stroke-miterlimit:10;}
	.st9{display:inline;clip-path:url(#SVGID_10_);}
	
		.st10{display:inline;clip-path:url(#SVGID_12_);fill:none;stroke:#010101;stroke-width:4;stroke-linecap:round;stroke-linejoin:round;stroke-miterlimit:10;}
	.st11{display:none;fill:#010101;}
	.st12{display:none;fill:none;stroke:#010101;stroke-width:4;stroke-linecap:round;stroke-linejoin:round;stroke-miterlimit:10;}
	
		.st13{display:inline;clip-path:url(#SVGID_14_);fill:none;stroke:#010101;stroke-width:4;stroke-linecap:round;stroke-linejoin:round;stroke-miterlimit:10;}
	.st14{display:inline;clip-path:url(#SVGID_16_);fill:#010101;stroke:#000000;stroke-width:0.5;stroke-miterlimit:10;}
	.st15{fill:none;}
	.st16{fill:#010101;}
	.st17{display:inline;fill:#010101;}
</style>
<g class="st0">
	<defs>
		<rect id="SVGID_1_" x="-188.2" y="-5.1" width="80.2" height="67.6"/>
	</defs>
	<clipPath id="SVGID_2_" class="st1">
		<use xlink:href="#SVGID_1_"  style="overflow:visible;"/>
	</clipPath>
	<path class="st2" d="M-115.7,6.4h-14.8l-4.9-7.7c-1.4-2.2-4.6-3.8-7.7-3.8h-38.5c-3.7,0-6.6,2.4-6.6,5.4v13.9v7.5v33.1
		c0,4.3,3.5,7.8,7.8,7.8h64.7c4.3,0,7.8-3.5,7.8-7.8V14.1C-107.9,9.9-111.4,6.4-115.7,6.4 M-113.9,54.7c0,0.9-0.8,1.8-1.8,1.8h-64.7
		c-0.9,0-1.8-0.8-1.8-1.8V21.7v-7.5c0-0.9,0.8-1.8,1.8-1.8h64.7c0.9,0,1.8,0.8,1.8,1.8V54.7z M-181.5,0.9h38.5c1.1,0,2.4,0.7,2.6,1
		l2.9,4.5h-42.8c-0.6,0-1.2,0.1-1.8,0.2V0.9C-182,0.9-181.8,0.9-181.5,0.9"/>
</g>
<g class="st0">
	<defs>
		<rect id="SVGID_3_" x="1" y="0" width="77.6" height="67.7"/>
	</defs>
	<clipPath id="SVGID_4_" class="st1">
		<use xlink:href="#SVGID_3_"  style="overflow:visible;"/>
	</clipPath>
	<path class="st3" d="M29,22.6H11.8C7.5,22.6,4,25.5,4,29v29.3c0,3.5,3.5,6.4,7.8,6.4h56c4.3,0,7.8-2.9,7.8-6.4V29
		c0-3.5-3.5-6.4-7.8-6.4H50.6"/>
	<line class="st4" x1="39.8" y1="54.5" x2="20" y2="34.7"/>
	<line class="st4" x1="39.8" y1="54.5" x2="59.6" y2="34.7"/>
	<line class="st3" x1="39.8" y1="3" x2="39.8" y2="51.6"/>
</g>
<g class="st0">
	<defs>
		<rect id="SVGID_5_" x="10.8" y="0" width="59" height="67.7"/>
	</defs>
	<clipPath id="SVGID_6_" class="st1">
		<use xlink:href="#SVGID_5_"  style="overflow:visible;"/>
	</clipPath>
	<path class="st5" d="M39.5,24.4v-15c0-3.7-1.8-6.8-4-6.8H17.4c-2.2,0-4,3.1-4,6.8v48.8c0,3.7,1.8,6.8,4,6.8h18.2c2.2,0,4-3.1,4-6.8
		v-15"/>
	<line class="st6" x1="67.1" y1="33.8" x2="49.9" y2="51.1"/>
	<line class="st6" x1="67.1" y1="33.8" x2="49.9" y2="16.6"/>
	<line class="st5" x1="22.2" y1="33.9" x2="64.5" y2="33.9"/>
</g>
<g class="st0">
	<defs>
		<rect id="SVGID_7_" x="7.8" y="1" width="64.9" height="65.7"/>
	</defs>
	<clipPath id="SVGID_8_" class="st1">
		<use xlink:href="#SVGID_7_"  style="overflow:visible;"/>
	</clipPath>
	<rect x="9.8" y="3" class="st7" width="25.4" height="25.4"/>
	<rect x="45.3" y="3" class="st7" width="25.4" height="25.4"/>
	<rect x="9.8" y="39.2" class="st7" width="25.4" height="25.4"/>
	<rect x="45.3" y="39.2" class="st7" width="25.4" height="25.4"/>
</g>
<g class="st0">
	<defs>
		<rect id="SVGID_9_" x="2.1" y="12.6" width="74" height="46.5"/>
	</defs>
	<clipPath id="SVGID_10_" class="st1">
		<use xlink:href="#SVGID_9_"  style="overflow:visible;"/>
	</clipPath>
	<polyline class="st8" points="4.1,38.5 21,57 39.1,38.5 74.1,38.5 	"/>
	<path class="st9" d="M67.3,24.6c0,5.6-4.5,10.1-10.1,10.1s-10.1-4.5-10.1-10.1s4.5-10.1,10.1-10.1S67.3,19.1,67.3,24.6"/>
	<circle class="st8" cx="57.3" cy="24.6" r="10.1"/>
</g>
<g class="st0">
	<defs>
		<rect id="SVGID_11_" x="-0.1" y="1.1" width="80.7" height="65.6"/>
	</defs>
	<clipPath id="SVGID_12_" class="st1">
		<use xlink:href="#SVGID_11_"  style="overflow:visible;"/>
	</clipPath>
	<path class="st10" d="M69.1,23.8V56c0,4.7-3.6,8.6-7.9,8.6H19.4c-4.3,0-7.9-3.9-7.9-8.6V23.8"/>
	<polyline class="st10" points="1.9,29.6 40.3,3.1 78.6,29.6 	"/>
	<path class="st10" d="M65.6,62.8H45c-1.4,0-2.6-1.2-2.6-2.6V33c0-1.4,1.2-2.6,2.6-2.6h21.6"/>
</g>
<rect x="11.5" y="33.6" class="st11" width="57.6" height="6.6"/>
<rect x="11.5" y="33.6" class="st12" width="57.6" height="6.6"/>
<rect x="11.5" y="47.4" class="st11" width="57.6" height="6.6"/>
<rect x="11.5" y="47.4" class="st12" width="57.6" height="6.6"/>
<g class="st0">
	<defs>
		<rect id="SVGID_13_" x="-0.1" y="1.9" width="80.7" height="65.6"/>
	</defs>
	<clipPath id="SVGID_14_" class="st1">
		<use xlink:href="#SVGID_13_"  style="overflow:visible;"/>
	</clipPath>
	<path class="st13" d="M69.1,24.6v32.3c0,4.7-3.6,8.6-7.9,8.6H19.4c-4.3,0-7.9-3.9-7.9-8.6V24.6"/>
	<polyline class="st13" points="1.9,30.5 40.3,3.9 78.6,30.5 	"/>
</g>
<g class="st0">
	<defs>
		<rect id="SVGID_15_" x="7.8" y="0.7" width="65.7" height="65.7"/>
	</defs>
	<clipPath id="SVGID_16_" class="st1">
		<use xlink:href="#SVGID_15_"  style="overflow:visible;"/>
	</clipPath>
	<path class="st14" d="M63.9,10.3c-6.2-6.2-14.5-9.6-23.2-9.6c-8.8,0-17,3.4-23.2,9.6S7.8,24.8,7.8,33.6c0,8.8,3.4,17,9.6,23.2
		c6.2,6.2,14.5,9.6,23.2,9.6c8.8,0,17-3.4,23.2-9.6c6.2-6.2,9.6-14.5,9.6-23.2C73.5,24.8,70.1,16.6,63.9,10.3 M20.3,13.2
		C25.7,7.7,33,4.7,40.7,4.7c6.9,0,13.4,2.4,18.6,6.8L18.6,52.2c-4.4-5.2-6.8-11.7-6.8-18.6C11.8,25.9,14.8,18.6,20.3,13.2 M61.1,54
		c-5.5,5.4-12.7,8.5-20.4,8.5c-7.2,0-13.9-2.6-19.2-7.4l40.7-40.7c4.8,5.3,7.4,12.1,7.4,19.2C69.5,41.3,66.5,48.5,61.1,54"/>
</g>
<g>
	<path class="st15" d="M54.3,20.1h6.4l-5.9-5.9L49,8.3v6.4C49,17.7,51.4,20.1,54.3,20.1z"/>
	<path class="st15" d="M54.3,24.1c-5.2,0-9.4-4.2-9.4-9.4V5.5H26.7c-3,0-5.4,2.4-5.4,5.4v46.9c0,3,2.4,5.4,5.4,5.4h31.5
		c3,0,5.4-2.4,5.4-5.4V24.1H54.3z M31.1,29.9h22.5c1.1,0,2,0.9,2,2s-0.9,2-2,2H31.1c-1.1,0-2-0.9-2-2S30,29.9,31.1,29.9z M47,53.2
		H31.1c-1.1,0-2-0.9-2-2s0.9-2,2-2H47c1.1,0,2,0.9,2,2S48.1,53.2,47,53.2z M53.7,43.5H31.2c-1.1,0-2-0.9-2-2s0.9-2,2-2h22.5
		c1.1,0,2,0.9,2,2S54.8,43.5,53.7,43.5z"/>
	<path class="st16" d="M31.1,33.9h22.5c1.1,0,2-0.9,2-2s-0.9-2-2-2H31.1c-1.1,0-2,0.9-2,2S30,33.9,31.1,33.9z"/>
	<path class="st16" d="M53.7,39.5H31.2c-1.1,0-2,0.9-2,2s0.9,2,2,2h22.5c1.1,0,2-0.9,2-2S54.8,39.5,53.7,39.5z"/>
	<path class="st16" d="M47,49.2H31.1c-1.1,0-2,0.9-2,2s0.9,2,2,2H47c1.1,0,2-0.9,2-2S48.1,49.2,47,49.2z"/>
	<path class="st16" d="M67.5,21.7C67.5,21.7,67.5,21.7,67.5,21.7c0-0.2-0.1-0.3-0.2-0.5c0,0,0-0.1-0.1-0.1c-0.1-0.2-0.2-0.3-0.3-0.4
		L48.4,2c-0.1-0.1-0.3-0.2-0.4-0.3c0,0-0.1,0-0.1-0.1c-0.3-0.1-0.6-0.2-0.9-0.2H26.7c-5.2,0-9.4,4.2-9.4,9.4v46.9
		c0,5.2,4.2,9.4,9.4,9.4h31.5c5.2,0,9.4-4.2,9.4-9.4V22.1C67.6,21.9,67.6,21.8,67.5,21.7z M49,8.3l5.9,5.9l5.9,5.9h-6.4
		c-3,0-5.4-2.4-5.4-5.4V8.3z M58.2,63.1H26.7c-3,0-5.4-2.4-5.4-5.4V10.8c0-3,2.4-5.4,5.4-5.4H45v9.2c0,5.2,4.2,9.4,9.4,9.4h9.2v33.6
		C63.6,60.7,61.2,63.1,58.2,63.1z"/>
</g>
<g class="st0">
	<path class="st17" d="M72.5,12.5H57.2l-5.2-8.2C50.7,2.4,47.8,1,45.1,1H6.6C3.5,1,1,2.9,1,5.4v13.9v7.5v33.1c0,3.7,3,6.8,6.8,6.8
		h64.7c3.7,0,6.8-3,6.8-6.8V19.3C79.2,15.6,76.2,12.5,72.5,12.5z M75.2,59.9c0,1.5-1.2,2.8-2.8,2.8H7.7c-1.5,0-2.8-1.2-2.8-2.8V26.8
		v-7.5c0-1.5,1.2-2.8,2.8-2.8h64.7c1.5,0,2.8,1.2,2.8,2.8V59.9z M45.1,5c1.4,0,3,0.8,3.4,1.5l3.8,6.1H7.7c-1,0-1.9,0.2-2.8,0.6V5.5
		C5.1,5.3,5.7,5,6.6,5H45.1z"/>
</g>
</svg>
