<svg xmlns="http://www.w3.org/2000/svg" xmlns:xlink="http://www.w3.org/1999/xlink" width="1920" height="1311" viewBox="0 0 1920 1311">
    <defs>
        <clipPath id="b">
            <rect width="1920" height="1311" />
        </clipPath>
    </defs>
    <g id="a" clip-path="url(#b)">
        <rect width="1920" height="1311" fill="#b3a698" />
        <path d="M856.915,357.309l1362.415-4.534-37.916-280.86L879.021,120.005Z" transform="translate(-396.788 -254.43)" fill="#63635b" />
        <path d="M856.467,523.829l1120.675-1.35,6.766,63.606L847.991,581.893Z" transform="translate(-401.63 -9.942)" fill="#8c8b8d" />
        <path d="M852.622,518.769l1478.063,7.557,2.825,722.157-1485.519,12.3Z" transform="translate(-401.63 50.221)" fill="#9b989c" />
        <path d="M512.995,1207.865l521.04-31.927,7.493-666.6L1077.292,0H592.384L545.457,104.281s2.536,18.133,18.178,85.915,10.5,529.344,2.678,581.485S512.995,1207.865,512.995,1207.865Z" transform="translate(-583.408 -293.454)" fill="#264032" />
        <path d="M531.32,815.06l-52.1,326.5,1010.494-6.853s121.542-33.847,87.129-319.645c-14.9-123.75-170.873,1.365-428.37-40.167C861.082,802.328,531.32,815.06,531.32,815.06Z" transform="translate(-601.733 118.272)" fill="#47584a" />
        <path d="M798.232,530.271l1041.021-7.791,1.826,58.418-1053.8,1.4Z" transform="translate(-864.968 351.033)" fill="#8c8b8d" />
        <path d="M798.781,530.271l1093.26-7.791-68.471,62.605L787.278,582.3Z" transform="translate(-923.587 725.892)" fill="#8c8b8d" />
        <g transform="translate(4.018 936.532)">
            <path d="M597.953,764.072l-36.708,27.8v254.461l36.708,29.58Z" transform="translate(-561.245 -764.072)" fill="#fff" />
            <path d="M561.245,764.072l36.708,27.8v254.461l-36.708,29.58Z" transform="translate(-525.121 -764.072)" fill="#fff" />
        </g>
        <g transform="translate(301.43 936.532)">
            <path d="M597.953,764.072l-36.708,27.8v254.461l36.708,29.58Z" transform="translate(-561.245 -764.072)" fill="#fff" />
            <path d="M561.245,764.072l36.708,27.8v254.461l-36.708,29.58Z" transform="translate(-525.121 -764.072)" fill="#fff" />
        </g>
        <g transform="translate(598.841 936.532)">
            <path d="M597.953,764.072l-36.708,27.8v254.461l36.708,29.58Z" transform="translate(-561.245 -764.072)" fill="#fff" />
            <path d="M561.245,764.072l36.708,27.8v254.461l-36.708,29.58Z" transform="translate(-525.121 -764.072)" fill="#fff" />
        </g>
        <g transform="translate(103.155 936.532)">
            <path d="M597.953,764.072l-36.708,27.8v254.461l36.708,29.58Z" transform="translate(-561.245 -764.072)" fill="#fff" />
            <path d="M561.245,764.072l36.708,27.8v254.461l-36.708,29.58Z" transform="translate(-525.121 -764.072)" fill="#fff" />
        </g>
        <g transform="translate(400.567 936.532)">
            <path d="M597.953,764.072l-36.708,27.8v254.461l36.708,29.58Z" transform="translate(-561.245 -764.072)" fill="#fff" />
            <path d="M561.245,764.072l36.708,27.8v254.461l-36.708,29.58Z" transform="translate(-525.121 -764.072)" fill="#fff" />
        </g>
        <g transform="translate(697.979 936.532)">
            <path d="M597.953,764.072l-36.708,27.8v254.461l36.708,29.58Z" transform="translate(-561.245 -764.072)" fill="#fff" />
            <path d="M561.245,764.072l36.708,27.8v254.461l-36.708,29.58Z" transform="translate(-525.121 -764.072)" fill="#fff" />
        </g>
        <g transform="translate(202.293 936.532)">
            <path d="M597.953,764.072l-36.708,27.8v254.461l36.708,29.58Z" transform="translate(-561.245 -764.072)" fill="#fff" />
            <path d="M561.245,764.072l36.708,27.8v254.461l-36.708,29.58Z" transform="translate(-525.121 -764.072)" fill="#fff" />
        </g>
        <g transform="translate(499.704 936.532)">
            <path d="M597.953,764.072l-36.708,27.8v254.461l36.708,29.58Z" transform="translate(-561.245 -764.072)" fill="#fff" />
            <path d="M561.245,764.072l36.708,27.8v254.461l-36.708,29.58Z" transform="translate(-525.121 -764.072)" fill="#fff" />
        </g>
        <g transform="translate(797.116 936.532)">
            <path d="M597.953,764.072l-36.708,27.8v254.461l36.708,29.58Z" transform="translate(-561.245 -764.072)" fill="#fff" />
            <path d="M561.245,764.072l36.708,27.8v254.461l-36.708,29.58Z" transform="translate(-525.121 -764.072)" fill="#fff" />
        </g>
        <g transform="translate(482.233 572.472)">
            <path d="M596.739,764.072l-35.494,26.879V1037l35.494,28.6Z" transform="translate(-561.245 -764.072)" fill="#fff" />
            <path d="M561.245,764.072l35.494,26.879V1037l-35.494,28.6Z" transform="translate(-526.315 -764.072)" fill="#fff" />
        </g>
        <g transform="translate(578.092 572.472)">
            <path d="M596.739,764.072l-35.494,26.879V1037l35.494,28.6Z" transform="translate(-561.245 -764.072)" fill="#fff" />
            <path d="M561.245,764.072l35.494,26.879V1037l-35.494,28.6Z" transform="translate(-526.315 -764.072)" fill="#fff" />
        </g>
        <g transform="translate(673.952 572.472)">
            <path d="M596.739,764.072l-35.494,26.879V1037l35.494,28.6Z" transform="translate(-561.245 -764.072)" fill="#fff" />
            <path d="M561.245,764.072l35.494,26.879V1037l-35.494,28.6Z" transform="translate(-526.315 -764.072)" fill="#fff" />
        </g>
        <g transform="translate(769.811 572.472)">
            <path d="M596.739,764.072l-35.494,26.879V1037l35.494,28.6Z" transform="translate(-561.245 -764.072)" fill="#fff" />
            <path d="M561.245,764.072l35.494,26.879V1037l-35.494,28.6Z" transform="translate(-526.315 -764.072)" fill="#fff" />
        </g>
        <g transform="translate(482.233 185.897)">
            <path d="M599.7,764.072l-38.45,29.118v266.539l38.45,30.984Z" transform="translate(-561.245 -764.072)" fill="#fff" />
            <path d="M561.245,764.072,599.7,793.19v266.539l-38.45,30.984Z" transform="translate(-523.406 -764.072)" fill="#fff" />
        </g>
        <g transform="translate(592.776 185.897)">
            <path d="M599.7,764.072l-38.45,29.118v266.539l38.45,30.984Z" transform="translate(-561.245 -764.072)" fill="#fff" />
            <path d="M561.245,764.072,599.7,793.19v266.539l-38.45,30.984Z" transform="translate(-523.406 -764.072)" fill="#fff" />
        </g>
        <g transform="translate(703.318 185.897)">
            <path d="M599.7,764.072l-38.45,29.118v266.539l38.45,30.984Z" transform="translate(-561.245 -764.072)" fill="#fff" />
            <path d="M561.245,764.072,599.7,793.19v266.539l-38.45,30.984Z" transform="translate(-523.406 -764.072)" fill="#fff" />
        </g>
        <g transform="translate(813.861 185.897)">
            <path d="M599.7,764.072l-38.45,29.118v266.539l38.45,30.984Z" transform="translate(-561.245 -764.072)" fill="#fff" />
            <path d="M561.245,764.072,599.7,793.19v266.539l-38.45,30.984Z" transform="translate(-523.406 -764.072)" fill="#fff" />
        </g>
        <g transform="translate(924.404 185.897)">
            <path d="M599.7,764.072l-38.45,29.118v266.539l38.45,30.984Z" transform="translate(-561.245 -764.072)" fill="#fff" />
            <path d="M561.245,764.072,599.7,793.19v266.539l-38.45,30.984Z" transform="translate(-523.406 -764.072)" fill="#fff" />
        </g>
        <g transform="translate(1034.946 185.897)">
            <path d="M599.7,764.072l-38.45,29.118v266.539l38.45,30.984Z" transform="translate(-561.245 -764.072)" fill="#fff" />
            <path d="M561.245,764.072,599.7,793.19v266.539l-38.45,30.984Z" transform="translate(-523.406 -764.072)" fill="#fff" />
        </g>
        <g transform="translate(1145.489 185.897)">
            <path d="M599.7,764.072l-38.45,29.118v266.539l38.45,30.984Z" transform="translate(-561.245 -764.072)" fill="#fff" />
            <path d="M561.245,764.072,599.7,793.19v266.539l-38.45,30.984Z" transform="translate(-523.406 -764.072)" fill="#fff" />
        </g>
        <g transform="translate(1256.031 185.897)">
            <path d="M599.7,764.072l-38.45,29.118v266.539l38.45,30.984Z" transform="translate(-561.245 -764.072)" fill="#fff" />
            <path d="M561.245,764.072,599.7,793.19v266.539l-38.45,30.984Z" transform="translate(-523.406 -764.072)" fill="#fff" />
        </g>
        <g transform="translate(1360.449 234.568)">
            <path d="M1440.544,353.064l.1,65.758h91.983v62.492h-33.7V615.426h-16.149V640h29.49v15.447l103.217-2.809V640l38.618-2.809-5.617-294.906h-21.767V356.33l-186.071-3.511" transform="translate(-1440.544 -342.287)" fill="#fff" />
        </g>
        <rect width="93" height="302" transform="translate(883 572)" fill="#fff" />
        <g transform="translate(1004.346 593.226)">
            <path d="M1243.97,564.785s-34.9,26.274-34.259,73.56,32.542,74.4,32.542,74.4l326.2,2.693s-32.407-37.662-31.992-81.818,35.11-68.7,35.11-68.7Z" transform="translate(-1209.702 -564.785)" fill="#fff" />
        </g>
        <path d="M852.654,343.617l1113.694-8.763,10.876,530.884,336.821,115.925-94.931-728.41L858.131,255.077Z" transform="translate(-399.099 -156.032)" fill="#264032" />
        <path d="M561.245,1445.3s93.594-59.961,166.591-49.533,422.338,59.962,422.338,59.962,148.6,41.712,252.881-10.428,213.776-370.2,252.882-419.731,252.881-187.706,409.3-218.99,264.255-65.212,412.855-28.714,105.943,836.892,105.943,836.892H581.842Z" transform="translate(-557.227 120.055)" fill="#47584a" />
        <path d="M250.63,1550.072S-13,228.181-13,219.073s146.549-7.084,146.549-1.012S346.89,1550.072,346.89,1550.072Z" transform="translate(1818.989 -231.637) rotate(7)" fill="#9b989c" />
        <path d="M1124.84,1140.006s98.581-32.8,100.407-211.1,0-172.695,0-172.695l56.391,1.2s46.551,260.881-56.391,382.592S1124.84,1140.006,1124.84,1140.006Z" transform="translate(-251.407 116.876)" fill="#8c8b8d" />
        <g transform="translate(1017.441 788.914)">
            <path d="M1231.854,563.869s-24.29,30.05-23.651,83.114,19.667,82.357,19.667,82.357l167.681.3s-17.45-31.882-17.035-81.433,18.57-83.944,18.57-83.944Z" transform="translate(-1208.191 -563.869)" fill="#fff" />
        </g>
    </g>
</svg>