<svg xmlns="http://www.w3.org/2000/svg" width="23" height="23" viewBox="0 0 23 23">
  <g id="Group_737" data-name="Group 737" transform="translate(0 0)">
    <path id="Path_294" data-name="Path 294" d="M21.823,9.087l-1.614-.274a9.116,9.116,0,0,0-.649-1.566l.951-1.331a1.417,1.417,0,0,0-.154-1.831L18.926,2.653a1.41,1.41,0,0,0-1-.418A1.4,1.4,0,0,0,17.1,2.5l-1.336.951a9.021,9.021,0,0,0-1.624-.668l-.269-1.6A1.419,1.419,0,0,0,12.468,0H10.445a1.419,1.419,0,0,0-1.4,1.187L8.764,2.821A8.891,8.891,0,0,0,7.2,3.48L5.881,2.528a1.419,1.419,0,0,0-1.831.154L2.614,4.114A1.422,1.422,0,0,0,2.46,5.944l.961,1.35a8.9,8.9,0,0,0-.639,1.571l-1.6.269A1.419,1.419,0,0,0,0,10.538V12.56a1.419,1.419,0,0,0,1.187,1.4l1.634.279A8.891,8.891,0,0,0,3.479,15.8L2.532,17.12a1.417,1.417,0,0,0,.154,1.831l1.432,1.432a1.41,1.41,0,0,0,1,.418,1.4,1.4,0,0,0,.822-.264l1.35-.961a9.089,9.089,0,0,0,1.518.625l.269,1.614A1.419,1.419,0,0,0,10.484,23h2.028a1.419,1.419,0,0,0,1.4-1.187l.274-1.614a9.116,9.116,0,0,0,1.566-.649l1.331.951a1.411,1.411,0,0,0,.826.264h0a1.41,1.41,0,0,0,1-.418l1.432-1.432a1.422,1.422,0,0,0,.154-1.831l-.951-1.336a9.05,9.05,0,0,0,.649-1.566l1.614-.269A1.419,1.419,0,0,0,23,12.512V10.49A1.4,1.4,0,0,0,21.823,9.087Zm-.111,3.426a.124.124,0,0,1-.106.125l-2.018.336a.645.645,0,0,0-.519.476,7.692,7.692,0,0,1-.836,2.013.65.65,0,0,0,.029.706l1.187,1.672a.131.131,0,0,1-.014.163L18,19.436a.122.122,0,0,1-.091.038.118.118,0,0,1-.072-.024l-1.667-1.187a.649.649,0,0,0-.706-.029,7.691,7.691,0,0,1-2.013.836.638.638,0,0,0-.476.519l-.341,2.018a.124.124,0,0,1-.125.106H10.489a.124.124,0,0,1-.125-.106l-.336-2.018a.645.645,0,0,0-.476-.519,7.987,7.987,0,0,1-1.97-.807.665.665,0,0,0-.327-.086.633.633,0,0,0-.375.12L5.2,19.493a.143.143,0,0,1-.072.024.129.129,0,0,1-.091-.038L3.6,18.047a.13.13,0,0,1-.014-.163l1.182-1.658a.658.658,0,0,0,.029-.711,7.619,7.619,0,0,1-.846-2.008.658.658,0,0,0-.519-.476L1.4,12.685A.124.124,0,0,1,1.3,12.56V10.538a.124.124,0,0,1,.106-.125l2-.336A.65.65,0,0,0,3.93,9.6a7.684,7.684,0,0,1,.822-2.018.641.641,0,0,0-.034-.7l-1.2-1.682a.131.131,0,0,1,.014-.163L4.968,3.6a.122.122,0,0,1,.091-.038.118.118,0,0,1,.072.024L6.789,4.767A.658.658,0,0,0,7.5,4.8,7.619,7.619,0,0,1,9.508,3.95a.658.658,0,0,0,.476-.519L10.33,1.4a.124.124,0,0,1,.125-.106h2.023A.124.124,0,0,1,12.6,1.4l.336,2a.65.65,0,0,0,.48.524,7.8,7.8,0,0,1,2.061.846.65.65,0,0,0,.706-.029l1.658-1.192a.143.143,0,0,1,.072-.024.129.129,0,0,1,.091.038L19.44,5a.13.13,0,0,1,.014.163L18.267,6.828a.649.649,0,0,0-.029.706,7.691,7.691,0,0,1,.836,2.013.638.638,0,0,0,.519.476l2.018.341a.124.124,0,0,1,.106.125v2.023Z" transform="translate(0 -0.001)" fill="#fff"/>
    <path id="Path_295" data-name="Path 295" d="M141.063,136a4.963,4.963,0,1,0,4.963,4.963A4.966,4.966,0,0,0,141.063,136Zm0,8.629a3.666,3.666,0,1,1,3.666-3.666A3.668,3.668,0,0,1,141.063,144.63Z" transform="translate(-129.561 -129.467)" fill="#fff"/>
  </g>
</svg>
