<svg id="icons" enable-background="new 0 0 64 64" height="512" viewBox="0 0 64 64" width="512" xmlns="http://www.w3.org/2000/svg"><path d="m54.004 0h-44.008c-.553 0-1 .447-1 1v58.998c0 .553.447 1 1 1h2.002v2.002c0 .553.447 1 1 1h7c.553 0 1-.447 1-1v-2.002h22.006v2.002c0 .553.447 1 1 1h7c.553 0 1-.447 1-1v-2.002h2c.553 0 1-.447 1-1v-58.998c0-.553-.447-1-1-1zm-35.006 62h-5v-1h5zm31.006 0h-5v-1h5zm3-60v4.003h-42.008v-4.003zm-42.008 56.998v-50.995h42.008v50.995z"/><path d="m50.002 10.001h-36.004c-.553 0-1 .447-1 1v44.998c0 .553.447 1 1 1h2.971c.011 0 .019.006.029.006h8c.011 0 .019-.006.029-.006h2.941c.011 0 .019.006.029.006h8c.011 0 .019-.006.029-.006h2.941c.011 0 .019.006.029.006h8c.011 0 .019-.006.029-.006h2.975c.553 0 1-.447 1-1v-44.998c.002-.553-.445-1-.998-1zm-7.004 22.001c.553 0 1-.447 1-1h.586l1.414 1.416v.584h-6v-.584l1.413-1.416h.587c0 .553.447 1 1 1zm-3 3h6v5.002h-6zm8-2.998c0-.265-.105-.52-.293-.707l-2-2.002c-.188-.188-.441-.293-.707-.293h-1c0-.553-.447-1-1-1s-1 .447-1 1h-1.002c-.266 0-.521.105-.708.294l-1.998 2.002c-.187.188-.292.441-.292.706v8h-1v-8c0-.265-.105-.52-.293-.707l-2-2.002c-.188-.188-.441-.293-.707-.293h-1c0-.553-.447-1-1-1s-1 .447-1 1h-1.002c-.266 0-.521.105-.708.294l-1.998 2.002c-.187.188-.292.441-.292.706v8h-1v-8c0-.265-.105-.52-.293-.707l-2-2.002c-.188-.188-.441-.293-.707-.293h-1c0-.553-.447-1-1-1s-1 .447-1 1h-1.002c-.266 0-.521.105-.708.294l-1.998 2.002c-.187.188-.292.441-.292.706v8h-1v-13.001h2 8 3 8 3 8 2.004v13.001h-1.004zm-16-.002c.553 0 1-.447 1-1h.586l1.414 1.416v.584h-6v-.584l1.413-1.416h.587c0 .553.447 1 1 1zm-3 3h6v5.002h-6zm-8-3c.553 0 1-.447 1-1h.586l1.414 1.416v.584h-6v-.584l1.413-1.416h.587c0 .553.447 1 1 1zm-3 3h6v5.002h-6zm3-18.001c.553 0 1-.447 1-1h.586l1.414 1.416v.584h-6v-.584l1.413-1.416h.587c0 .553.447 1 1 1zm-3 3h6v5.002h-6zm14-3c.553 0 1-.447 1-1h.586l1.414 1.416v.584h-6v-.584l1.413-1.416h.587c0 .553.447 1 1 1zm-3 3h6v5.002h-6zm14-3c.553 0 1-.447 1-1h.586l1.414 1.416v.584h-6v-.584l1.413-1.416h.587c0 .553.447 1 1 1zm-3 3h6v5.002h-6zm9.004-8v13.002h-1.004v-8c0-.265-.105-.52-.293-.707l-2-2.002c-.188-.188-.441-.293-.707-.293h-1c0-.553-.447-1-1-1s-1 .447-1 1h-1.002c-.266 0-.521.105-.708.294l-1.998 2.002c-.187.188-.292.441-.292.706v8h-1v-8c0-.265-.105-.52-.293-.707l-2-2.002c-.188-.188-.441-.293-.707-.293h-1c0-.553-.447-1-1-1s-1 .447-1 1h-1.002c-.266 0-.521.105-.708.294l-1.998 2.002c-.187.188-.292.441-.292.706v8h-1v-8c0-.265-.105-.52-.293-.707l-2-2.002c-.188-.188-.441-.293-.707-.293h-1c0-.553-.447-1-1-1s-1 .447-1 1h-1.002c-.266 0-.521.105-.708.294l-1.998 2.002c-.187.188-.292.441-.292.706v8h-1v-13.002zm-28.004 35.002c.553 0 1-.447 1-1h.586l1.414 1.416v.584h-6v-.584l1.413-1.416h.587c0 .553.447 1 1 1zm-3 3h6v4.996h-6zm14-3c.553 0 1-.447 1-1h.586l1.414 1.416v.584h-6v-.584l1.413-1.416h.587c0 .553.447 1 1 1zm-3 3h6v4.996h-6zm14-3c.553 0 1-.447 1-1h.586l1.414 1.416v.584h-6v-.584l1.413-1.416h.587c0 .553.447 1 1 1zm-3 3h6v4.996h-6zm8 4.996v-7.994c0-.265-.105-.52-.293-.707l-2-2.002c-.188-.188-.441-.293-.707-.293h-1c0-.553-.447-1-1-1s-1 .447-1 1h-1.002c-.266 0-.521.105-.708.294l-1.998 2.002c-.187.188-.292.441-.292.706v7.994h-1v-7.994c0-.265-.105-.52-.293-.707l-2-2.002c-.188-.188-.441-.293-.707-.293h-1c0-.553-.447-1-1-1s-1 .447-1 1h-1.002c-.266 0-.521.105-.708.294l-1.998 2.002c-.187.188-.292.441-.292.706v7.994h-1v-7.994c0-.265-.105-.52-.293-.707l-2-2.002c-.188-.188-.441-.293-.707-.293h-1c0-.553-.447-1-1-1s-1 .447-1 1h-1.002c-.266 0-.521.105-.708.294l-1.998 2.002c-.187.188-.292.441-.292.706v7.994h-1v-12.995h2 8 3 8 3 8 2.004v12.995z"/><path d="m28.498 5h7c.553 0 1-.447 1-1s-.447-1-1-1h-7c-.553 0-1 .447-1 1s.447 1 1 1z"/><path d="m44.506 5.003c.552 0 1-.447 1-1s-.448-1-1-1h-.011c-.552 0-.994.447-.994 1s.452 1 1.005 1z"/><path d="m40.506 5.003c.552 0 1-.447 1-1s-.448-1-1-1h-.011c-.552 0-.994.447-.994 1s.452 1 1.005 1z"/><path d="m23.485 5.003c.552 0 1-.447 1-1s-.448-1-1-1h-.011c-.552 0-.994.447-.994 1s.453 1 1.005 1z"/><path d="m19.485 5.003c.552 0 1-.447 1-1s-.448-1-1-1h-.011c-.552 0-.994.447-.994 1s.453 1 1.005 1z"/></svg>